<?xml version="1.0" encoding="utf-8"?>
<!-- Generator: Adobe Illustrator 17.0.0, SVG Export Plug-In . SVG Version: 6.00 Build 0)  -->
<!DOCTYPE svg PUBLIC "-//W3C//DTD SVG 1.1//EN" "http://www.w3.org/Graphics/SVG/1.1/DTD/svg11.dtd">
<svg version="1.1" id="图层_2" xmlns="http://www.w3.org/2000/svg" xmlns:xlink="http://www.w3.org/1999/xlink" x="0px" y="0px"
	 width="114px" height="40px" viewBox="0 0 114 40" enable-background="new 0 0 114 40" xml:space="preserve">
<g>
	<g>
		<path fill="#ECECEC" d="M34.027,26.856l1.039,0.838c1.563-1.668,1.784-3.39,1.784-5.712c-0.361,0-0.994,0-1.255,0
			C35.594,23.717,35.417,25.475,34.027,26.856z"/>
		<path fill="#ECECEC" d="M34.988,14.753l-0.763,0.929c0.562,0.482,1.286,1.016,2.048,1.529l0.713-0.992
			C36.986,16.218,35.918,15.526,34.988,14.753z"/>
		<path fill="#ECECEC" d="M45.383,19.599h1.638V18.52l-0.001-0.001c0-0.102-0.083-0.185-0.186-0.185l-0.002,0.001h-1.768
			c0-0.027,0-0.066,0-0.093v-1.079h1.398v-1.079l0,0c0-0.103-0.083-0.186-0.186-0.186l0,0h-1.212v-1.172h-1.212v1.172h-3.675v-1.172
			h-1.211v1.172h-1.411v1.265h1.411v1.079c0,0.027,0,0.067,0,0.093h-1.971V19.6h1.651c-0.226,0.359-0.612,0.706-1.278,0.985
			l-0.426,0.133v1.265c0,0,0.466-0.08,0.905-0.266c0.121-0.047,0.185-0.069,0.266-0.109v2.239c0,0,0,1.99,0,2.296
			c0,0.714,0.438,1.312,1.392,1.312h6.623c0.103,0,0.186-0.083,0.186-0.186l0,0l0,0V26.19h-6.627c-0.202,0-0.275-0.117-0.275-0.3
			c0,0,0-0.632,0-0.819c0.912,0,5.3,0,6.26,0c0.016,0,0.03-0.003,0.044-0.009c0.081-0.02,0.142-0.09,0.142-0.177
			c0-0.001,0-0.001,0-0.001v-3.311c0.105,0.05,0.213,0.097,0.323,0.143c0.439,0.186,0.905,0.266,0.905,0.266v-1.265l-0.426-0.133
			C45.996,20.305,45.61,19.959,45.383,19.599z M40.178,18.241v-1.079h3.675v1.079c0,0.027,0,0.067,0,0.093h-3.675
			C40.178,18.308,40.178,18.268,40.178,18.241z M44.634,23.846c-0.685,0-3.569,0-5.221,0v-1.211c1.538,0,4.48,0,5.221,0V23.846z
			 M39.339,21.383h-0.612h-0.213c0.173-0.107,0.333-0.213,0.479-0.333c0.533-0.479,0.826-0.985,0.985-1.451h4.074
			c0.16,0.466,0.453,0.972,0.985,1.451c0.146,0.12,0.306,0.226,0.479,0.333H39.339z"/>
		<path fill="#ECECEC" d="M34.184,19.255c0.562,0.482,1.286,1.016,2.048,1.529l0.713-0.992c0,0-1.068-0.692-1.998-1.465
			L34.184,19.255z"/>
		<rect x="20.179" y="18.783" fill="#ECECEC" width="1.193" height="3.923"/>
		<rect x="22.717" y="18.783" fill="#ECECEC" width="1.235" height="3.923"/>
		<path fill="#ECECEC" d="M29.127,14.727h-1.211v1.172h-4.471v-1.172h-1.212v1.172h-2.595v1.265h2.595v1.172h1.212v-1.172h4.471
			v1.172h1.211v-1.172h2.595v-1.079l0,0c0-0.103-0.083-0.186-0.186-0.186h-2.409C29.127,15.899,29.127,14.727,29.127,14.727z"/>
		<path fill="#ECECEC" d="M30.954,23.539L30.954,23.539c0-0.103-0.083-0.186-0.186-0.186l0,0l0,0h-0.276H29.66h-1.789h-1.294h-1.789
			h-1.294h-1.789h-0.758H20.41v2.836h-1.095v1.266h12.733V26.19h-1.095L30.954,23.539L30.954,23.539z M23.493,26.19h-1.789v-1.571
			h1.789V26.19z M26.576,26.19h-1.789v-1.571h1.789V26.19z M29.66,26.19h-1.789v-1.571h1.789V26.19z"/>
		<path fill="#ECECEC" d="M27.439,18.627c0-0.103-0.083-0.186-0.186-0.186l0,0l0,0c-0.364,0-0.843,0-1.025,0
			c0,1.356-0.033,2.558-0.954,3.823l1.055,0.635c0.627-0.815,0.9-1.651,1.019-2.531h0.604c0.096,0.975,1.004,2.667,3.373,2.667
			c0-0.205,0-0.968,0-1.229c-0.986,0-1.892-0.581-2.061-1.437h1.961V19.32l0,0l0,0c0-0.103-0.083-0.186-0.186-0.186h-3.605
			C27.437,18.967,27.439,18.799,27.439,18.627C27.439,18.629,27.439,18.628,27.439,18.627z"/>
	</g>
	<g>
		<path fill="#ECECEC" d="M110.882,19.134c-0.173,0-0.314,0.141-0.314,0.314v0.471c-0.068-0.09-0.969-1.212-2.676-1.212
			l-0.075,0.001c-0.596,0.012-1.194,0.12-1.632,0.317c-1.445,0.651-1.979,1.678-2.236,2.281c-0.235,0.553-0.355,1.178-0.356,1.858
			c0.001,0.68,0.121,1.305,0.356,1.858c0.256,0.603,0.79,1.63,2.236,2.281c0.438,0.197,1.035,0.305,1.632,0.317l0.075,0.001
			c1.574,0,2.48-1.05,2.569-1.22v0.534c0,0.907-0.203,1.701-0.695,2.228c-0.457,0.489-1.146,0.737-1.969,0.711
			c-0.883-0.028-1.52-0.419-2.192-1.196c-0.019-0.022-0.124-0.142-0.146-0.167c-0.156-0.18-0.377-0.223-0.581-0.093
			c-0.33,0.211-0.645,0.398-1.219,0.746c0.643,1.228,2.161,2.491,4.22,2.491c0.694,0,1.31-0.108,1.883-0.331
			c0.558-0.217,1.029-0.526,1.439-0.943c0.383-0.389,0.684-0.879,0.923-1.498c0.202-0.528,0.296-1.165,0.296-2.006v-7.741
			L110.882,19.134z M110.336,24.336c-0.081,0.19-0.18,0.36-0.291,0.516c-0.088,0.13-0.182,0.252-0.288,0.358
			c-0.237,0.237-0.514,0.419-0.823,0.541c-0.308,0.121-0.623,0.182-0.936,0.182c-0.314,0-0.626-0.062-0.928-0.183
			c-0.304-0.122-0.578-0.308-0.815-0.552c-0.236-0.242-0.428-0.539-0.572-0.881c-0.143-0.34-0.215-0.734-0.217-1.169
			c0.001-0.436,0.074-0.829,0.217-1.169c0.144-0.342,0.336-0.639,0.572-0.881c0.237-0.244,0.511-0.429,0.815-0.552
			c0.302-0.121,0.614-0.183,0.928-0.183s0.629,0.061,0.936,0.182c0.309,0.122,0.586,0.304,0.823,0.541
			c0.236,0.237,0.429,0.534,0.574,0.884c0.142,0.347,0.215,0.743,0.216,1.178c0,0.002-0.001,0.004-0.001,0.006
			c0,0.016,0.004,0.03,0.004,0.046C110.549,23.62,110.477,24.002,110.336,24.336z"/>
		<path fill="#ECECEC" d="M58.012,17.622c0.312,0,0.573-0.111,0.798-0.339c0.226-0.228,0.335-0.497,0.335-0.821
			c0-0.329-0.111-0.602-0.339-0.832c-0.227-0.231-0.492-0.343-0.81-0.343s-0.581,0.11-0.806,0.336
			c-0.225,0.226-0.334,0.49-0.334,0.809c0,0.335,0.111,0.611,0.339,0.845C57.423,17.509,57.69,17.622,58.012,17.622z"/>
		<path fill="#ECECEC" d="M59.005,19.434c0-0.166-0.134-0.3-0.3-0.3h-1.66v8.294h1.96V19.434z"/>
		<path fill="#ECECEC" d="M85.782,19.134h-2.477l-3.312,3.163v-6.702c0-0.166-0.134-0.3-0.3-0.3h-1.66v12.133h1.96v-2.727
			l1.321-1.267l0.113,0.173c0,0,1.87,2.875,2.337,3.585c0.118,0.179,0.253,0.235,0.467,0.235h1.984l-3.554-5.231L85.782,19.134z"/>
		<path fill="#ECECEC" d="M50.555,27.428h5.307v-1.96h-3.647v-9.873c0-0.166-0.134-0.3-0.3-0.3h-1.661v11.833
			C50.256,27.294,50.39,27.428,50.555,27.428z"/>
		<path fill="#ECECEC" d="M99.633,18.707c-0.701,0-1.33,0.164-1.804,0.427c-0.753,0.418-1.01,0.837-1.01,0.837v-0.537
			c0-0.166-0.134-0.3-0.3-0.3H95.05v8.294h1.96v-4.926c0-0.44,0.104-1.243,0.945-1.815c0.285-0.193,0.672-0.32,1.02-0.339
			c0.687-0.039,1.111,0.216,1.417,0.552c0.347,0.383,0.416,0.964,0.416,1.678v4.85h1.96v-5.265c0-0.461-0.043-0.904-0.214-1.441
			C102.224,19.691,101.045,18.707,99.633,18.707z"/>
		<path fill="#ECECEC" d="M76.889,25.41c0,0-0.702-0.462-1.105-0.722c-0.226-0.146-0.4-0.051-0.508,0.087
			c-0.245,0.313-0.883,1.139-2.116,1.158c-0.268,0.004-1.001-0.026-1.625-0.545c-0.881-0.733-0.893-1.8-0.893-1.8h6.551
			c0.016-0.137,0.053-1.248-0.275-2.246c-0.175-0.532-0.746-1.696-2.126-2.288c-0.519-0.223-1.05-0.348-1.721-0.348
			c-0.634,0-1.222,0.12-1.746,0.357c-0.527,0.238-0.989,0.562-1.374,0.964s-0.689,0.878-0.904,1.416s-0.301,1.116-0.301,1.718
			c0,0.648,0.088,1.249,0.309,1.787s0.534,1.011,0.929,1.406c0.395,0.395,0.868,0.708,1.406,0.929s1.133,0.333,1.769,0.333
			c0.923,0,1.635-0.206,2.315-0.643C76.062,26.595,76.597,25.999,76.889,25.41z M71.636,20.766c0.384-0.297,0.871-0.468,1.434-0.468
			c0.394,0,0.99,0.079,1.586,0.622c0.618,0.563,0.684,1.285,0.684,1.285h-4.642C70.699,22.205,70.865,21.362,71.636,20.766z"/>
		<path fill="#ECECEC" d="M92.97,26.367c1.209-1.249,1.299-2.557,1.299-3.205c0-0.649-0.103-1.966-1.299-3.163
			c-1.158-1.159-2.393-1.291-3.113-1.291s-1.965,0.121-3.113,1.291c-1.186,1.208-1.299,2.515-1.299,3.163s0.09,1.956,1.299,3.205
			c1.141,1.178,2.408,1.249,3.113,1.249C90.561,27.616,91.829,27.545,92.97,26.367z M88.911,25.763
			c-0.306-0.122-0.583-0.308-0.822-0.552c-0.238-0.242-0.432-0.539-0.577-0.881c-0.144-0.34-0.218-0.734-0.219-1.169
			c0.001-0.436,0.075-0.829,0.219-1.169c0.145-0.342,0.339-0.639,0.577-0.881c0.239-0.244,0.515-0.429,0.822-0.552
			c0.304-0.121,0.62-0.183,0.937-0.183c0.316,0,0.634,0.061,0.945,0.182c0.312,0.122,0.591,0.304,0.831,0.541
			c0.238,0.237,0.433,0.534,0.579,0.884c0.144,0.347,0.217,0.743,0.218,1.177c-0.001,0.434-0.074,0.831-0.218,1.178
			c-0.146,0.35-0.34,0.647-0.579,0.884c-0.239,0.237-0.519,0.419-0.831,0.541c-0.31,0.121-0.628,0.182-0.945,0.182
			C89.53,25.946,89.215,25.885,88.911,25.763z"/>
		<path fill="#ECECEC" d="M62.199,22.502c0-0.44,0.104-1.243,0.945-1.815c0.285-0.193,0.672-0.32,1.02-0.339
			c0.687-0.039,1.112,0.216,1.417,0.552c0.347,0.383,0.415,0.964,0.415,1.678v4.85h1.96v-5.265c0-0.461-0.043-0.904-0.214-1.441
			c-0.329-1.031-1.508-2.015-2.92-2.015c-0.701,0-1.33,0.164-1.804,0.427c-0.753,0.418-1.01,0.837-1.01,0.837v-0.537
			c0-0.166-0.134-0.3-0.3-0.3h-1.469v8.294h1.96C62.199,27.428,62.199,22.502,62.199,22.502z"/>
	</g>
	<path fill="#009CFF" d="M8.258,28.299c-0.977-0.8-2.988-2.55-3.565-3.044C2.841,23.671,2.001,22.107,2,19.98
		c-0.001-1.932,1.026-3.545,2.805-5.07c1.956-1.676,2.838-2.375,3.82-3.221l2.054-1.78l1.353,1.575L9.796,13.42
		c-0.935,0.805-1.736,1.434-3.56,2.997c-1.231,1.055-2.04,2.186-2.084,3.496c-0.048,1.439,0.552,2.622,1.732,3.631
		c1.399,1.197,2.465,2.085,3.492,2.967c0.475,0.409,1.822,1.405,3.252,0.715c1.36-0.657,1.407-1.79,1.407-2.65v-7.872
		c0-0.686-0.74-1.121-1.424-0.546c-0.283,0.238-3.543,2.979-3.881,3.278c-0.174,0.154-0.396,0.346-0.396,0.675
		c0,0.241,0.124,0.452,0.42,0.704c1.42,1.212,2.473,2.105,3.122,2.655l0.539,0.458l-1.353,1.576l-0.002-0.001
		c-0.434-0.366-2.192-1.852-3.823-3.244c-0.691-0.59-1.154-1.183-1.167-2.158c-0.009-0.737,0.368-1.428,1.121-2.056
		c0.216-0.18,3.582-3.069,3.714-3.182c1.207-1.031,2.429-1.3,3.687-0.746c1.157,0.509,1.553,1.681,1.553,2.542v7.961
		c0,2.214-0.801,3.739-2.56,4.551c-1.096,0.506-2.397,0.499-3.467,0.174C9.42,29.134,8.698,28.66,8.258,28.299z"/>
</g>
</svg>
